<svg width="24" height="24" viewBox="0 0 24 24" fill="none" xmlns="http://www.w3.org/2000/svg">
<path fill-rule="evenodd" clip-rule="evenodd" d="M21.914 3.17249C23.014 3.17249 23.9182 4.02886 23.9948 5.11063L24 5.25949V18.7415C24 19.8415 23.1436 20.7457 22.0627 20.8222L21.914 20.8275H2.086C0.986 20.8275 0.0817958 19.9711 0.00524879 18.8902L0 18.7415V5.25949C0 4.15853 0.856378 3.25428 1.93727 3.17773L2.086 3.17249H21.914ZM21.914 4.17249H2.086C1.52693 4.17249 1.06543 4.59672 1.00638 5.1411L1 5.25949V18.7415C1 19.3006 1.42423 19.7621 1.9678 19.8211L2.086 19.8275H21.914C22.4731 19.8275 22.9346 19.4033 22.9936 18.8597L23 18.7415V5.25949C23 4.69949 22.5758 4.23792 22.0322 4.17887L21.914 4.17249ZM10.0171 12.6897C11.1171 12.6897 12.0213 13.5461 12.0979 14.627L12.1031 14.7757V16.3627C12.1031 16.6387 11.8801 16.8627 11.6031 16.8627C11.3578 16.8627 11.1535 16.6857 11.1112 16.4525L11.1031 16.3627V14.7757C11.1031 14.2166 10.6789 13.7551 10.1353 13.6961L10.0171 13.6897H6.0521C5.49303 13.6897 5.03066 14.1139 4.9715 14.6575L4.9651 14.7757V16.3627C4.9651 16.6387 4.7421 16.8627 4.4651 16.8627C4.21977 16.8627 4.01552 16.6857 3.97316 16.4525L3.9651 16.3627V14.7757C3.9651 13.6757 4.82148 12.7715 5.90325 12.6949L6.0521 12.6897H10.0171ZM19.5342 15.0696C19.8102 15.0696 20.0342 15.2936 20.0342 15.5696C20.0342 15.8149 19.8572 16.0192 19.624 16.0615L19.5342 16.0696H14.7752C14.4992 16.0696 14.2752 15.8456 14.2752 15.5696C14.2752 15.3243 14.4522 15.12 14.6854 15.0776L14.7752 15.0696H19.5342ZM19.5342 11.1038C19.8102 11.1038 20.0342 11.3278 20.0342 11.6038C20.0342 11.8491 19.8572 12.0534 19.624 12.0957L19.5342 12.1038H14.7752C14.4992 12.1038 14.2752 11.8798 14.2752 11.6038C14.2752 11.3585 14.4522 11.1542 14.6854 11.1118L14.7752 11.1038H19.5342ZM6.2788 7.86549C7.2468 6.89849 8.8228 6.89749 9.7898 7.86549C10.2588 8.33449 10.5178 8.95749 10.5178 9.62049C10.5178 10.2845 10.2588 10.9075 9.7898 11.3765C9.3058 11.8605 8.6708 12.1025 8.0348 12.1025C7.3988 12.1025 6.7628 11.8605 6.2788 11.3765C5.3108 10.4085 5.3108 8.83349 6.2788 7.86549ZM8.0338 8.13849C7.6548 8.13849 7.2748 8.28349 6.9858 8.57249C6.4078 9.15049 6.4078 10.0915 6.9858 10.6695C7.5648 11.2485 8.5058 11.2475 9.0828 10.6695C9.3628 10.3895 9.5178 10.0165 9.5178 9.62049C9.5178 9.22449 9.3628 8.85249 9.0828 8.57249C8.7938 8.28349 8.4138 8.13849 8.0338 8.13849ZM19.5342 7.13789C19.8102 7.13789 20.0342 7.36189 20.0342 7.63789C20.0342 7.88322 19.8572 8.08747 19.624 8.12983L19.5342 8.13789H14.7752C14.4992 8.13789 14.2752 7.91389 14.2752 7.63789C14.2752 7.39255 14.4522 7.1883 14.6854 7.14595L14.7752 7.13789H19.5342Z" fill="#4B286D"/>
</svg>
