<svg width="24" height="24" viewBox="0 0 24 24" fill="none" xmlns="http://www.w3.org/2000/svg">
<path fill-rule="evenodd" clip-rule="evenodd" d="M15.101 3.16028L15.1803 3.16257C16.0526 3.17549 16.4537 3.35883 16.9287 3.78416L17.0493 3.89557H17.2083C18.7282 3.89557 19.5228 5.42998 19.5709 8.45607L19.5733 8.75357C19.5733 12.3266 20.8273 13.3866 20.8403 13.3976C20.9783 13.4986 21.0573 13.6656 21.0483 13.8426C21.0408 13.9884 20.9721 14.1224 20.8609 14.214L20.7893 14.2636C20.7511 14.2855 19.8783 14.7895 18.1595 15.1257L17.9083 15.1726L18.0053 15.5496L20.7413 16.2206C22.6603 16.6896 24.0003 18.3736 24.0003 20.3166C24.0003 20.5735 23.8154 20.7877 23.5727 20.8321L23.4793 20.8406H19.5203C19.2333 20.8406 19.0003 20.6066 19.0003 20.3196C19.0003 20.0645 19.1844 19.8512 19.4268 19.807L19.5203 19.7986H22.9153C22.7163 18.6106 21.8649 17.6514 20.6917 17.2876L20.4933 17.2326L17.4543 16.4886C17.2976 16.4502 17.1708 16.3432 17.1051 16.2009L17.0733 16.1116L16.7583 14.8766C16.7213 14.7326 16.7483 14.5786 16.8303 14.4566C16.9143 14.3326 17.0463 14.2506 17.1913 14.2316C18.3193 14.0766 19.1493 13.8246 19.6803 13.6226C19.2319 12.9602 18.5864 11.5789 18.5355 9.07273L18.5301 8.49574C18.5102 7.29639 18.3346 5.10742 17.3281 4.94692L17.2083 4.93757H16.8403C16.7013 4.93757 16.5713 4.88457 16.4743 4.78757L16.2704 4.59154C15.9632 4.30638 15.7846 4.2204 15.2213 4.20457C15.0483 4.24057 14.8473 4.15657 14.7323 3.98157C14.6253 3.82157 14.6133 3.60757 14.7063 3.43857C14.7971 3.26971 14.9438 3.17065 15.101 3.16028ZM10.9468 3.17317C12.2998 3.17317 13.2818 3.61617 13.8648 4.48917C14.6095 5.60155 14.2985 6.39194 13.8715 6.87588L13.8068 6.94617L13.5728 7.17617L13.5148 8.36017C13.6668 8.43217 13.8058 8.53817 13.9188 8.66717C14.1226 8.89904 14.2308 9.19753 14.2245 9.50166L14.2148 9.63217L14.0308 11.0782C13.9708 11.5412 13.6538 11.9302 13.2128 12.0902C13.0569 13.0068 12.6213 13.905 11.9967 14.606L11.8218 14.7922L12.0158 15.5502L14.7538 16.2202C16.6708 16.6912 18.0108 18.3762 18.0108 20.3172C18.0108 20.5741 17.8267 20.7875 17.5842 20.8317L17.4908 20.8402H0.520756C0.233756 20.8402 -0.000244141 20.6062 -0.000244141 20.3192C-0.000244141 18.4456 1.24575 16.8119 3.0545 16.2761L3.25776 16.2212L5.99676 15.5512L6.20676 14.7272C5.53376 14.0192 5.05676 13.0772 4.88676 12.1202C4.44948 11.9974 4.11221 11.6483 4.00642 11.2124L3.98176 11.0792L3.79776 9.63217C3.75276 9.28217 3.86176 8.92817 4.09676 8.66217C4.21976 8.52117 4.37376 8.40917 4.54776 8.33517L4.46479 7.5529C4.4401 7.28149 4.42776 7.07884 4.42776 6.94717C4.42776 5.56917 4.84676 3.97917 8.10476 3.90017C9.23276 3.17317 10.4318 3.17317 10.9468 3.17317ZM10.9458 4.21417C10.2128 4.21417 9.35576 4.28917 8.56576 4.84317C8.48076 4.90217 8.37676 4.93617 8.27176 4.93717C5.67876 4.96217 5.46776 5.86217 5.46776 6.94617C5.46776 7.27217 5.58176 8.25917 5.63776 8.68617C5.65776 8.83517 5.61176 8.98517 5.51076 9.09717C5.41276 9.21017 5.27076 9.27417 5.12076 9.27417C4.96376 9.27417 4.90876 9.31117 4.87676 9.34817C4.86101 9.36692 4.83738 9.40086 4.83035 9.44787L4.82976 9.49917L5.01276 10.9452C5.02316 11.0268 5.08476 11.0917 5.1653 11.1144L5.22876 11.1232H5.34976C5.62076 11.1232 5.84776 11.3342 5.86876 11.6032C5.94776 12.5582 6.42176 13.5222 7.13676 14.1802C7.25509 14.2885 7.31509 14.4427 7.30402 14.5987L7.28876 14.6922L6.92776 16.1102C6.88776 16.266 6.7797 16.392 6.63715 16.4563L6.54776 16.4872L3.50576 17.2312C2.29786 17.5296 1.39332 18.4428 1.12375 19.6026L1.08476 19.7982H16.9258C16.7268 18.6111 15.8763 17.652 14.7023 17.2874L14.5038 17.2322L11.4638 16.4882C11.3079 16.4507 11.1813 16.3437 11.1156 16.2015L11.0838 16.1122L10.7368 14.7542C10.6878 14.5632 10.7488 14.3642 10.8968 14.2332C11.6498 13.5722 12.1468 12.5892 12.2258 11.6042C12.2453 11.3606 12.4237 11.1708 12.6548 11.1316L12.7438 11.1242C12.8579 11.1242 12.9471 11.0742 12.9817 10.9956L12.9958 10.9452L13.1808 9.50117C13.1878 9.44617 13.1718 9.39517 13.1338 9.35217C13.0928 9.30417 13.0328 9.27717 12.9658 9.27617C12.8268 9.27617 12.6908 9.21617 12.5938 9.11317C12.5162 9.02917 12.468 8.92341 12.4554 8.81279L12.4528 8.72917L12.5428 6.92017C12.5473 6.82267 12.5793 6.72967 12.6347 6.65003L12.6978 6.57517L13.0668 6.21317C13.2788 5.99117 13.4188 5.69617 12.9978 5.06717C12.6208 4.50117 11.9298 4.21417 10.9458 4.21417Z" fill="#4B286D"/>
</svg>
